<svg width="2087" height="669" viewBox="0 0 2087 669" fill="none" xmlns="http://www.w3.org/2000/svg">
<path fill-rule="evenodd" clip-rule="evenodd" d="M360.892 344.714L273.247 264.967L203.646 378.156L159.823 434.751L113.423 491.346L61.8671 550.513L0 617.398L139.201 514.498L208.802 455.331L273.247 388.446L366.047 429.606L420.181 378.156L474.315 321.561L538.76 246.959L572.271 205.799L672.805 246.959L804.273 115.762L848.095 162.067L891.918 205.799L938.318 246.959L989.068 280.048L988.251 280.663L947.804 311.453L898.42 347.445L833.022 393.813L789.212 422.397L728.26 460.508L765.72 451.615L810.8 438.911L859.054 417.315L930.843 375.6L996.08 329.415L1066.54 280.663L1129.16 229.345L1160.48 255.004L1191.79 280.663L1225.71 306.322L1257 330.324L1146.53 424.303L1113.84 393.813L1018.72 468.397L905.601 540.408L679.37 669L779.631 635.567L905.601 584.129L1018.72 530.121L1113.84 468.397L1183.25 509.546L1221.81 524.977L1265.51 535.265L1179.96 455.485L1391.36 284.294L1585.38 469.328L1890.92 477.063L1929.27 509.26L1967.82 535.857L2000.41 556.383L2087 612.316L2013.98 546.892L1951.76 484.009L1942.48 474.708L1772.52 293.942L1682.37 291.659L1683.87 231.994L1617.69 230.319L1616.18 289.984L1467.82 286.229L1393.13 214.515L1302.56 291.559L1267.46 267.834L1220.49 231.91L1176.13 198.554L1134.38 160.066L1066.54 221.647L1032.75 247.206L982.141 205.799L917.696 141.487L809.428 0L775.917 43.7323L737.25 84.8922L690.85 131.197L657.338 154.349L549.071 115.762L507.826 180.074L458.848 239.242L407.292 300.981L360.892 344.714ZM1337.15 392.543H1379.71V434.712H1337.15V392.543ZM1379.71 450.525H1337.15V492.694H1379.71V450.525ZM1395.66 450.525H1438.21V492.694H1395.66V450.525ZM1438.21 392.543H1395.66V434.712H1438.21V392.543Z" fill="white"/>
</svg>
