<svg width="2310" height="2310" viewBox="0 0 2310 2310" fill="none" xmlns="http://www.w3.org/2000/svg">
<rect x="40" y="40" width="2230" height="2230" rx="1115" fill="#F5F5F5"/>
<rect x="40" y="40" width="2230" height="2230" rx="1115" stroke="#21331C" stroke-width="80"/>
<g clip-path="url(#clip0_110_2)">
<rect x="111" y="111" width="2088" height="2088" rx="1044" fill="#F2994A"/>
<circle cx="1155" cy="1155" r="880" fill="#FFA656"/>
<circle cx="1154.5" cy="1154.5" r="740.5" fill="#FFB06A"/>
<circle cx="1155" cy="1155" r="589" fill="#FFBD83"/>
<rect x="152" y="1223" width="2094" height="1007" fill="#21331C"/>
<path d="M483.305 1517.04V1548.28H533.729V1577.32H483.305V1611.2H540.334V1641.34H445.652V1486.9H540.334V1517.04H483.305ZM602.431 1517.04V1548.28H652.855V1577.32H602.431V1611.2H659.461V1641.34H564.779V1486.9H659.461V1517.04H602.431ZM723.98 1610.54H790.478V1641.34H681.263V1612.74L747.32 1517.7H681.263V1486.9H790.478V1515.5L723.98 1610.54ZM955.316 1562.14C964.27 1564.05 971.464 1568.52 976.895 1575.56C982.325 1582.46 985.042 1590.38 985.042 1599.32C985.042 1612.23 980.492 1622.5 971.39 1630.12C962.436 1637.6 949.885 1641.34 933.737 1641.34H861.735V1486.9H931.315C947.023 1486.9 959.279 1490.5 968.087 1497.68C977.041 1504.87 981.519 1514.62 981.519 1526.94C981.519 1536.04 979.096 1543.59 974.252 1549.6C969.554 1555.62 963.243 1559.8 955.316 1562.14ZM899.388 1549.38H924.049C930.214 1549.38 934.912 1548.06 938.141 1545.42C941.518 1542.64 943.205 1538.6 943.205 1533.32C943.205 1528.04 941.518 1524.01 938.141 1521.22C934.912 1518.44 930.214 1517.04 924.049 1517.04H899.388V1549.38ZM927.132 1610.98C933.443 1610.98 938.287 1609.59 941.664 1606.8C945.187 1603.87 946.949 1599.69 946.949 1594.26C946.949 1588.84 945.113 1584.58 941.444 1581.5C937.921 1578.42 933.003 1576.88 926.691 1576.88H899.388V1610.98H927.132ZM1043.87 1486.9V1579.3C1043.87 1588.54 1046.15 1595.66 1050.7 1600.64C1055.25 1605.63 1061.93 1608.12 1070.74 1608.12C1079.54 1608.12 1086.29 1605.63 1090.99 1600.64C1095.69 1595.66 1098.04 1588.54 1098.04 1579.3V1486.9H1135.69V1579.08C1135.69 1592.87 1132.76 1604.53 1126.88 1614.06C1121.01 1623.6 1113.09 1630.78 1103.1 1635.62C1093.27 1640.46 1082.26 1642.88 1070.07 1642.88C1057.89 1642.88 1046.95 1640.54 1037.27 1635.84C1027.72 1631 1020.17 1623.82 1014.59 1614.28C1009.01 1604.6 1006.22 1592.87 1006.22 1579.08V1486.9H1043.87ZM1199.78 1486.9V1641.34H1162.13V1486.9H1199.78ZM1264.72 1612.3H1314.05V1641.34H1227.07V1486.9H1264.72V1612.3ZM1389.92 1486.9C1406.21 1486.9 1420.45 1490.13 1432.63 1496.58C1444.82 1503.04 1454.21 1512.13 1460.82 1523.86C1467.57 1535.45 1470.95 1548.87 1470.95 1564.12C1470.95 1579.23 1467.57 1592.65 1460.82 1604.38C1454.21 1616.12 1444.74 1625.21 1432.41 1631.66C1420.23 1638.12 1406.06 1641.34 1389.92 1641.34H1332.01V1486.9H1389.92ZM1387.49 1608.78C1401.73 1608.78 1412.82 1604.9 1420.74 1597.12C1428.67 1589.35 1432.63 1578.35 1432.63 1564.12C1432.63 1549.9 1428.67 1538.82 1420.74 1530.9C1412.82 1522.98 1401.73 1519.02 1387.49 1519.02H1369.66V1608.78H1387.49ZM1529.64 1486.9V1641.34H1491.99V1486.9H1529.64ZM1695.21 1641.34H1657.55L1594.58 1546.08V1641.34H1556.93V1486.9H1594.58L1657.55 1582.6V1486.9H1695.21V1641.34ZM1825.11 1535.74C1822.32 1530.61 1818.28 1526.72 1813 1524.08C1807.86 1521.3 1801.77 1519.9 1794.72 1519.9C1782.54 1519.9 1772.78 1523.94 1765.44 1532C1758.1 1539.92 1754.43 1550.56 1754.43 1563.9C1754.43 1578.13 1758.24 1589.28 1765.88 1597.34C1773.66 1605.26 1784.3 1609.22 1797.8 1609.22C1807.05 1609.22 1814.83 1606.88 1821.14 1602.18C1827.6 1597.49 1832.3 1590.74 1835.24 1581.94H1787.46V1554.22H1869.37V1589.2C1866.58 1598.59 1861.81 1607.32 1855.05 1615.38C1848.45 1623.45 1840.01 1629.98 1829.73 1634.96C1819.46 1639.95 1807.86 1642.44 1794.94 1642.44C1779.67 1642.44 1766.02 1639.14 1753.99 1632.54C1742.1 1625.8 1732.77 1616.48 1726.02 1604.6C1719.42 1592.72 1716.11 1579.16 1716.11 1563.9C1716.11 1548.65 1719.42 1535.08 1726.02 1523.2C1732.77 1511.18 1742.1 1501.86 1753.99 1495.26C1765.88 1488.52 1779.45 1485.14 1794.72 1485.14C1813.22 1485.14 1828.78 1489.62 1841.4 1498.56C1854.17 1507.51 1862.61 1519.9 1866.72 1535.74H1825.11Z" fill="#F5F5F5"/>
<path d="M886.927 1850.08C881.789 1850.08 877.165 1849.2 873.055 1847.44C868.946 1845.61 865.715 1843.04 863.367 1839.74C861.019 1836.44 859.844 1832.59 859.844 1828.19H873.275C873.57 1831.49 874.853 1834.21 877.129 1836.33C879.477 1838.46 882.744 1839.52 886.927 1839.52C891.257 1839.52 894.634 1838.5 897.056 1836.44C899.478 1834.32 900.689 1831.6 900.689 1828.3C900.689 1825.74 899.918 1823.65 898.377 1822.03C896.91 1820.42 895.038 1819.17 892.762 1818.29C890.56 1817.41 887.478 1816.46 883.514 1815.43C878.524 1814.11 874.45 1812.79 871.294 1811.47C868.211 1810.08 865.569 1807.95 863.367 1805.09C861.165 1802.23 860.064 1798.42 860.064 1793.65C860.064 1789.25 861.165 1785.4 863.367 1782.1C865.569 1778.8 868.651 1776.27 872.615 1774.51C876.578 1772.75 881.166 1771.87 886.377 1771.87C893.789 1771.87 899.844 1773.74 904.542 1777.48C909.313 1781.15 911.955 1786.21 912.469 1792.66H898.597C898.377 1789.88 897.056 1787.49 894.634 1785.51C892.212 1783.53 889.019 1782.54 885.056 1782.54C881.459 1782.54 878.524 1783.46 876.248 1785.29C873.972 1787.13 872.835 1789.77 872.835 1793.21C872.835 1795.56 873.532 1797.5 874.927 1799.04C876.394 1800.51 878.23 1801.68 880.432 1802.56C882.633 1803.44 885.642 1804.4 889.459 1805.42C894.524 1806.82 898.633 1808.21 901.79 1809.6C905.019 1811 907.735 1813.16 909.937 1816.09C912.213 1818.95 913.35 1822.8 913.35 1827.64C913.35 1831.53 912.285 1835.2 910.157 1838.64C908.102 1842.09 905.057 1844.88 901.019 1847C897.056 1849.06 892.358 1850.08 886.927 1850.08ZM963.06 1850.08C955.94 1850.08 949.372 1848.43 943.353 1845.13C937.408 1841.76 932.673 1837.1 929.15 1831.16C925.701 1825.15 923.976 1818.4 923.976 1810.92C923.976 1803.44 925.701 1796.73 929.15 1790.79C932.673 1784.85 937.408 1780.23 943.353 1776.93C949.372 1773.56 955.94 1771.87 963.06 1771.87C970.252 1771.87 976.822 1773.56 982.767 1776.93C988.786 1780.23 993.52 1784.85 996.969 1790.79C1000.42 1796.73 1002.14 1803.44 1002.14 1810.92C1002.14 1818.4 1000.42 1825.15 996.969 1831.16C993.52 1837.1 988.786 1841.76 982.767 1845.13C976.822 1848.43 970.252 1850.08 963.06 1850.08ZM963.06 1839.19C968.124 1839.19 972.638 1838.06 976.601 1835.78C980.565 1833.44 983.648 1830.14 985.849 1825.88C988.125 1821.56 989.262 1816.57 989.262 1810.92C989.262 1805.28 988.125 1800.33 985.849 1796.07C983.648 1791.82 980.565 1788.56 976.601 1786.28C972.638 1784.01 968.124 1782.87 963.06 1782.87C957.995 1782.87 953.481 1784.01 949.518 1786.28C945.555 1788.56 942.436 1791.82 940.16 1796.07C937.958 1800.33 936.857 1805.28 936.857 1810.92C936.857 1816.57 937.958 1821.56 940.16 1825.88C942.436 1830.14 945.555 1833.44 949.518 1835.78C953.481 1838.06 957.995 1839.19 963.06 1839.19ZM1027.05 1839.19H1052.92V1849.31H1014.49V1772.86H1027.05V1839.19ZM1075.85 1772.86V1821.59C1075.85 1827.39 1077.36 1831.75 1080.37 1834.68C1083.45 1837.62 1087.71 1839.08 1093.14 1839.08C1098.64 1839.08 1102.9 1837.62 1105.91 1834.68C1108.99 1831.75 1110.53 1827.39 1110.53 1821.59V1772.86H1123.08V1821.37C1123.08 1827.61 1121.73 1832.89 1119.01 1837.21C1116.3 1841.54 1112.66 1844.77 1108.11 1846.89C1103.56 1849.02 1098.53 1850.08 1093.03 1850.08C1087.52 1850.08 1082.5 1849.02 1077.95 1846.89C1073.47 1844.77 1069.91 1841.54 1067.27 1837.21C1064.62 1832.89 1063.3 1827.61 1063.3 1821.37V1772.86H1075.85ZM1188.86 1772.86V1783.09H1168.49V1849.31H1155.94V1783.09H1135.46V1772.86H1188.86ZM1214.12 1772.86V1849.31H1201.57V1772.86H1214.12ZM1265.5 1850.08C1258.38 1850.08 1251.81 1848.43 1245.79 1845.13C1239.85 1841.76 1235.11 1837.1 1231.59 1831.16C1228.14 1825.15 1226.42 1818.4 1226.42 1810.92C1226.42 1803.44 1228.14 1796.73 1231.59 1790.79C1235.11 1784.85 1239.85 1780.23 1245.79 1776.93C1251.81 1773.56 1258.38 1771.87 1265.5 1771.87C1272.69 1771.87 1279.26 1773.56 1285.21 1776.93C1291.22 1780.23 1295.96 1784.85 1299.41 1790.79C1302.86 1796.73 1304.58 1803.44 1304.58 1810.92C1304.58 1818.4 1302.86 1825.15 1299.41 1831.16C1295.96 1837.1 1291.22 1841.76 1285.21 1845.13C1279.26 1848.43 1272.69 1850.08 1265.5 1850.08ZM1265.5 1839.19C1270.56 1839.19 1275.08 1838.06 1279.04 1835.78C1283.01 1833.44 1286.09 1830.14 1288.29 1825.88C1290.56 1821.56 1291.7 1816.57 1291.7 1810.92C1291.7 1805.28 1290.56 1800.33 1288.29 1796.07C1286.09 1791.82 1283.01 1788.56 1279.04 1786.28C1275.08 1784.01 1270.56 1782.87 1265.5 1782.87C1260.44 1782.87 1255.92 1784.01 1251.96 1786.28C1247.99 1788.56 1244.87 1791.82 1242.6 1796.07C1240.4 1800.33 1239.3 1805.28 1239.3 1810.92C1239.3 1816.57 1240.4 1821.56 1242.6 1825.88C1244.87 1830.14 1247.99 1833.44 1251.96 1835.78C1255.92 1838.06 1260.44 1839.19 1265.5 1839.19ZM1379.8 1849.31H1367.25L1329.48 1792.22V1849.31H1316.93V1772.75H1329.48L1367.25 1829.73V1772.75H1379.8V1849.31ZM1421.49 1850.08C1416.35 1850.08 1411.73 1849.2 1407.62 1847.44C1403.51 1845.61 1400.28 1843.04 1397.93 1839.74C1395.58 1836.44 1394.41 1832.59 1394.41 1828.19H1407.84C1408.13 1831.49 1409.42 1834.21 1411.69 1836.33C1414.04 1838.46 1417.31 1839.52 1421.49 1839.52C1425.82 1839.52 1429.2 1838.5 1431.62 1836.44C1434.04 1834.32 1435.25 1831.6 1435.25 1828.3C1435.25 1825.74 1434.48 1823.65 1432.94 1822.03C1431.47 1820.42 1429.6 1819.17 1427.33 1818.29C1425.12 1817.41 1422.04 1816.46 1418.08 1815.43C1413.09 1814.11 1409.01 1812.79 1405.86 1811.47C1402.77 1810.08 1400.13 1807.95 1397.93 1805.09C1395.73 1802.23 1394.63 1798.42 1394.63 1793.65C1394.63 1789.25 1395.73 1785.4 1397.93 1782.1C1400.13 1778.8 1403.22 1776.27 1407.18 1774.51C1411.14 1772.75 1415.73 1771.87 1420.94 1771.87C1428.35 1771.87 1434.41 1773.74 1439.11 1777.48C1443.88 1781.15 1446.52 1786.21 1447.03 1792.66H1433.16C1432.94 1789.88 1431.62 1787.49 1429.2 1785.51C1426.78 1783.53 1423.58 1782.54 1419.62 1782.54C1416.02 1782.54 1413.09 1783.46 1410.81 1785.29C1408.54 1787.13 1407.4 1789.77 1407.4 1793.21C1407.4 1795.56 1408.1 1797.5 1409.49 1799.04C1410.96 1800.51 1412.79 1801.68 1415 1802.56C1417.2 1803.44 1420.21 1804.4 1424.02 1805.42C1429.09 1806.82 1433.2 1808.21 1436.35 1809.6C1439.58 1811 1442.3 1813.16 1444.5 1816.09C1446.78 1818.95 1447.91 1822.8 1447.91 1827.64C1447.91 1831.53 1446.85 1835.2 1444.72 1838.64C1442.67 1842.09 1439.62 1844.88 1435.58 1847C1431.62 1849.06 1426.92 1850.08 1421.49 1850.08Z" fill="#F5F5F5"/>
<path d="M660.791 1808.06H798.41" stroke="#F5F5F5" stroke-width="4"/>
<path d="M1510.59 1808.06H1648.21" stroke="#F5F5F5" stroke-width="4"/>
<path fill-rule="evenodd" clip-rule="evenodd" d="M472.892 842.714L385.247 762.967L315.646 876.156L271.823 932.751L225.423 989.346L173.867 1048.51L112 1115.4L251.201 1012.5L320.802 953.331L385.247 886.446L478.047 927.606L532.181 876.156L586.315 819.561L650.76 744.959L684.271 703.799L784.805 744.959L916.273 613.762L960.095 660.067L1003.92 703.799L1050.32 744.959L1101.07 778.048L1100.25 778.663L1059.8 809.453L1010.42 845.445L945.022 891.813L901.212 920.397L840.26 958.508L877.72 949.615L922.8 936.911L971.054 915.315L1042.84 873.6L1108.08 827.415L1178.54 778.663L1241.16 727.345L1272.48 753.004L1303.79 778.663L1337.71 804.322L1369 828.324L1258.53 922.303L1225.84 891.813L1130.72 966.397L1017.6 1038.41L791.37 1167L891.631 1133.57L1017.6 1082.13L1130.72 1028.12L1225.84 966.397L1295.25 1007.55L1333.81 1022.98L1377.51 1033.26L1291.96 953.485L1503.36 782.294L1697.38 967.328L2002.92 975.063L2041.27 1007.26L2079.82 1033.86L2112.41 1054.38L2199 1110.32L2125.98 1044.89L2063.76 982.009L2054.48 972.708L1884.52 791.942L1794.37 789.659L1795.87 729.994L1729.69 728.319L1728.18 787.984L1579.82 784.229L1505.13 712.515L1414.56 789.559L1379.46 765.834L1332.49 729.91L1288.13 696.554L1246.38 658.066L1178.54 719.647L1144.75 745.206L1094.14 703.799L1029.7 639.487L921.428 498L887.917 541.732L849.25 582.892L802.85 629.197L769.338 652.349L661.071 613.762L619.826 678.074L570.848 737.242L519.292 798.981L472.892 842.714ZM1449.15 890.543H1491.71V932.712H1449.15V890.543ZM1491.71 948.525H1449.15V990.694H1491.71V948.525ZM1507.66 948.525H1550.21V990.694H1507.66V948.525ZM1550.21 890.543H1507.66V932.712H1550.21V890.543Z" fill="#21331C"/>
</g>
<rect x="151" y="151" width="2008" height="2008" rx="1004" stroke="#21331C" stroke-width="80"/>
<defs>
<clipPath id="clip0_110_2">
<rect x="111" y="111" width="2088" height="2088" rx="1044" fill="white"/>
</clipPath>
</defs>
</svg>
